<svg width="103" height="24" viewBox="0 0 103 24" fill="none" xmlns="http://www.w3.org/2000/svg">
<path d="M27.9028 23.7371L18.2336 1.33694L23.7604 1.28388L25.0233 4.12227L32.2892 21.1771H28.9914L37.572 1.33694L42.7499 1.24154L33.0256 23.7371H27.9028Z" fill="#2A861E"/>
<path fill-rule="evenodd" clip-rule="evenodd" d="M49.481 23.994C47.624 23.9726 45.9912 23.5834 44.5823 22.8259C43.1736 22.0686 42.0635 21.0286 41.2526 19.7058C40.4414 18.3831 40.036 16.8578 40.036 15.1297C40.0145 13.4017 40.4202 11.871 41.2526 10.5377C42.0851 9.20444 43.2056 8.15905 44.6145 7.40176C46.0232 6.64446 47.6349 6.27636 49.449 6.29779C51.2847 6.27636 52.9176 6.64446 54.3478 7.40176C55.0647 7.78127 55.7024 8.23336 56.261 8.7577C55.9527 9.12338 55.669 9.51361 55.41 9.92838C54.4673 11.4385 54.0078 13.172 54.032 15.129C54.032 17.086 54.4913 18.8136 55.41 20.3117C55.6643 20.7267 55.9448 21.1169 56.2512 21.4828C55.6932 22.0017 55.0588 22.4493 54.3478 22.8259C52.9176 23.5832 51.2954 23.9726 49.4812 23.994H49.481ZM49.481 19.898C50.3134 19.898 51.0606 19.706 51.7221 19.322C52.3839 18.938 52.9067 18.3886 53.2909 17.674C53.6752 16.9594 53.8673 16.1112 53.8673 15.1299C53.8673 14.1272 53.6752 13.2738 53.2909 12.5699C52.9067 11.8659 52.3839 11.3218 51.7221 10.938C51.0604 10.554 50.3027 10.362 49.4489 10.362C48.6377 10.362 47.9013 10.554 47.2398 10.938C46.578 11.322 46.0498 11.866 45.6549 12.5699C45.2599 13.274 45.0625 14.1272 45.0625 15.1299C45.0625 16.1112 45.2599 16.9592 45.6549 17.674C46.0496 18.3886 46.5727 18.9433 47.2237 19.3381C47.8747 19.7328 48.6272 19.9194 49.4809 19.8982L49.481 19.898Z" fill="#004208"/>
<path d="M64.726 23.9938C62.8691 23.9724 61.2361 23.5832 59.8274 22.8257C58.4187 22.0684 57.3088 21.0284 56.4977 19.7056C55.6865 18.3831 55.2811 16.8576 55.2811 15.1297C55.2598 13.4017 55.6653 11.871 56.4977 10.5377C57.3301 9.20444 58.4507 8.15905 59.8594 7.40176C61.2681 6.64446 62.8796 6.27636 64.694 6.29779C66.5296 6.27636 68.1624 6.64446 69.5925 7.40176C71.0225 8.15905 72.1378 9.20444 72.9384 10.5377C73.7388 11.871 74.1389 13.4017 74.1389 15.1297C74.1603 16.8363 73.7654 18.3563 72.9543 19.6896C72.1431 21.0229 71.0225 22.0683 69.5925 22.8256C68.1624 23.5829 66.5403 23.9722 64.726 23.9936V23.9938ZM64.726 19.8978C65.5584 19.8978 66.3055 19.7058 66.9671 19.3218C67.6288 18.9378 68.1517 18.3884 68.5359 17.6738C68.9201 16.9592 69.1122 16.1112 69.1122 15.1299C69.1122 14.1272 68.9201 13.2738 68.5359 12.5699C68.1517 11.866 67.6288 11.322 66.9671 10.938C66.3053 10.554 65.5476 10.362 64.694 10.362C63.8828 10.362 63.1464 10.554 62.4849 10.938C61.8231 11.322 61.2949 11.866 60.9 12.5699C60.5052 13.274 60.3078 14.1272 60.3078 15.1299C60.3078 16.1112 60.5052 16.9592 60.9 17.6738C61.2949 18.3884 61.8178 18.9432 62.4688 19.3379C63.1198 19.7324 63.8721 19.9193 64.726 19.8978Z" fill="#004208"/>
<path d="M75.992 23.7375L75.96 -0.00632095H80.9225L80.9545 23.7375H75.992Z" fill="#004208"/>
<path d="M90.2721 23.7369L83.0361 6.52081H88.1909L94.2103 21.337H91.6488L97.8923 6.52081L102.75 6.36648L95.4269 23.7369H90.2721Z" fill="#2A861E"/>
<path fill-rule="evenodd" clip-rule="evenodd" d="M2.81738 1.33694H15.19L16.7934 5.49688H2.83589L2.81738 1.33694Z" fill="#004208"/>
<path fill-rule="evenodd" clip-rule="evenodd" d="M0 10.3706H18.2808L19.8657 14.3268H0V10.3706Z" fill="#004208"/>
<path fill-rule="evenodd" clip-rule="evenodd" d="M0 19.5464L21.3877 19.5872L22.9362 23.7366H0.0155603L0 19.5464Z" fill="#004208"/>
<path fill-rule="evenodd" clip-rule="evenodd" d="M66.8094 15.3597C66.6357 15.1977 65.7769 14.8649 65.4762 14.7356C65.7622 14.3264 67.085 12.9267 67.1693 12.6106C66.9821 12.5429 67.0137 12.5882 66.8469 12.6685L66.5623 12.8135L63.144 14.5433L62.8563 14.6819C62.7568 14.7327 62.5179 14.8255 62.6555 14.9387C62.7906 15.0498 63.7601 15.449 63.9364 15.5251C63.6568 15.9315 62.3133 17.3461 62.2507 17.6466C62.439 17.733 62.3993 17.6803 62.5602 17.5942C63.7417 16.9624 65.4359 16.2013 66.5519 15.585C66.66 15.5254 66.764 15.5114 66.809 15.3597H66.8094Z" fill="#004208"/>
<path d="M27.9028 23.7371L18.2336 1.3369L23.7604 1.28384L25.0233 4.12223L33.0256 23.7371H27.9028Z" fill="#004208"/>
<path d="M90.2721 23.737L83.0361 6.52084H88.1909L95.4269 23.737H90.2721Z" fill="#004208"/>
<path d="M0.0319859 23.7384L0 1.33841H4.96253L4.99469 23.7384H0.0319859Z" fill="#004208"/>
</svg>